<svg width="124" height="125" viewBox="0 0 124 125" fill="none" xmlns="http://www.w3.org/2000/svg">
<path d="M79.3254 40.0249L78.7254 67.4249C78.7254 67.4249 75.3254 71.6249 61.9254 71.6249C48.7254 71.6249 46.6254 66.8249 46.6254 66.8249L46.1254 41.6249C45.5254 41.7249 46.8254 41.6249 46.1254 41.6249C39.0254 41.7249 32.0254 36.0249 32.0254 28.9249C32.0254 21.8249 37.8254 16.0249 44.9254 16.0249C46.7254 16.0249 48.5254 16.4249 50.1254 17.1249C52.2254 12.9249 56.7254 10.0249 61.7254 10.0249C66.5254 10.0249 70.4254 12.7249 72.7254 16.6249C74.8254 15.0249 77.4254 14.2249 80.3254 14.2249C87.4254 14.2249 93.2254 19.9249 93.2254 27.1249C93.3254 34.2249 86.5254 40.0249 79.3254 40.0249C79.9254 40.0249 78.9254 40.0249 79.3254 40.0249Z" fill="white"/>
<path d="M27.7256 56.725C27.7256 55.625 27.6256 54.725 27.5256 54.225C27.3256 53.025 26.7256 51.925 25.7256 51.025C24.7256 50.125 23.6256 49.725 22.2256 49.725C20.8256 49.725 19.5256 50.225 18.5256 51.225C17.4256 50.225 16.2256 49.725 14.8256 49.725C13.5256 49.725 12.2256 50.225 11.3256 51.025C10.4256 51.825 9.72559 52.825 9.42559 54.225C9.32559 54.825 9.22559 55.625 9.22559 56.725V65.325C9.22559 65.825 9.62559 66.025 9.92559 66.025C10.4256 66.025 10.6256 65.625 10.6256 65.325V56.425C10.6256 54.825 10.9256 53.525 11.6256 52.525C12.3256 51.425 13.4256 50.925 14.9256 50.925C16.0256 50.925 16.9256 51.325 17.7256 52.125C17.0256 53.325 16.7256 54.625 16.7256 56.425V65.225C16.7256 65.625 17.0256 65.925 17.4256 65.925C17.9256 65.925 18.1256 65.525 18.1256 65.225V56.325C18.1256 55.025 18.3256 54.025 18.6256 53.325C18.9256 54.125 19.1256 55.325 19.1256 56.725V65.325C19.1256 65.725 19.4256 66.025 19.8256 66.025C20.3256 66.025 20.5256 65.625 20.5256 65.325V56.125C20.5256 54.325 20.2256 53.025 19.5256 52.025C20.2256 51.325 21.1256 50.925 22.2256 50.925C23.2256 50.925 24.1256 51.225 24.8256 51.825C25.5256 52.325 26.0256 53.125 26.3256 54.125C26.5256 54.725 26.5256 55.425 26.5256 56.425V65.325C26.5256 65.725 26.8256 66.025 27.2256 66.025C27.7256 66.025 27.9256 65.625 27.9256 65.325L27.8256 64.825V56.725H27.7256Z" fill="black"/>
<path d="M43.9256 52.225C42.3256 50.625 40.3256 49.825 38.0256 49.825C35.7256 49.825 33.7256 50.625 32.1256 52.225C30.5256 53.825 29.7256 55.825 29.7256 58.125C29.7256 60.425 30.5256 62.425 32.2256 64.025C33.9256 65.625 35.9256 66.425 38.2256 66.425C39.9256 66.425 41.5256 65.925 42.8256 65.025V65.225C42.8256 65.925 43.2256 66.125 43.5256 66.125C43.8256 66.125 44.2256 65.825 44.2256 65.225V63.925C45.8256 62.225 46.6256 60.325 46.6256 58.125C46.4256 55.725 45.5256 53.725 43.9256 52.225ZM42.6256 58.225V63.425C41.2256 64.625 39.7256 65.225 38.0256 65.225C36.1256 65.225 34.4256 64.525 33.1256 63.125C31.7256 61.825 31.1256 60.225 31.1256 58.225C31.1256 56.225 31.8256 54.625 33.2256 53.225C34.6256 51.825 36.2256 51.125 38.2256 51.125C40.1256 51.125 41.8256 51.825 43.1256 53.225C44.4256 54.625 45.2256 56.225 45.2256 58.125C45.2256 59.525 44.8256 60.725 44.1256 61.825V58.225C43.9256 57.225 42.6256 57.225 42.6256 58.225Z" fill="black"/>
<path d="M55.4256 66.425C57.3256 66.425 59.1256 65.825 60.7256 64.525C61.1256 64.225 61.4256 64.025 61.6256 63.725H61.7256V63.625C61.8256 63.525 61.8256 63.425 61.8256 63.225C61.8256 62.925 61.6256 62.625 61.2256 62.625H60.8256L60.7256 62.825V63.025C60.0256 63.625 59.2256 64.225 58.4256 64.625C57.5256 65.025 56.5256 65.325 55.6256 65.325C53.6256 65.325 52.0256 64.625 50.7256 63.225C49.3256 61.825 48.6256 60.225 48.6256 58.225C48.6256 56.325 49.3256 54.625 50.7256 53.325C52.0256 51.925 53.6256 51.325 55.6256 51.325C57.5256 51.325 59.2256 52.025 60.6256 53.425L60.9256 53.625H61.3256L61.4256 53.525C61.6256 53.425 61.7256 53.225 61.7256 53.025V52.825L61.6256 52.725C61.6256 52.725 61.6256 52.625 61.5256 52.625C61.4256 52.525 61.4256 52.425 61.3256 52.425C59.8256 50.825 57.8256 49.925 55.4256 49.925C53.1256 49.925 51.1256 50.725 49.5256 52.325C47.9256 53.925 47.1256 55.925 47.1256 58.225C47.1256 60.425 47.9256 62.425 49.5256 64.125C51.2256 65.625 53.2256 66.425 55.4256 66.425Z" fill="black"/>
<path d="M76.0256 52.225C74.4256 50.625 72.4256 49.825 70.1256 49.825C67.8256 49.825 65.8256 50.625 64.2256 52.225C62.6256 53.825 61.8256 55.825 61.8256 58.125C61.8256 60.425 62.6256 62.425 64.2256 64.025C65.9256 65.625 67.9256 66.425 70.2256 66.425C71.9256 66.425 73.5256 65.925 74.8256 65.025V65.225C74.8256 65.925 75.2256 66.125 75.5256 66.125C75.8256 66.125 76.2256 65.825 76.2256 65.225V63.925C77.8256 62.225 78.6256 60.325 78.6256 58.125C78.5256 55.625 77.7256 53.725 76.0256 52.225ZM74.7256 58.225V63.425C73.3256 64.625 71.8256 65.225 70.1256 65.225C68.2256 65.225 66.5256 64.525 65.1256 63.125C63.7256 61.825 63.1256 60.225 63.1256 58.225C63.1256 56.225 63.8256 54.625 65.2256 53.225C66.6256 51.825 68.2256 51.125 70.2256 51.125C72.1256 51.125 73.8256 51.825 75.1256 53.225C76.5256 54.625 77.2256 56.225 77.2256 58.125C77.2256 59.525 76.8256 60.825 76.1256 61.925V58.325C76.0256 57.225 74.7256 57.225 74.7256 58.225Z" fill="black"/>
<path d="M80.6256 66.125C81.1256 66.125 81.3256 65.725 81.3256 65.425V58.925C81.3256 57.225 81.4256 56.225 81.6256 55.525C81.9256 54.425 82.5256 53.525 83.3256 52.825C84.1256 52.125 85.0256 51.725 86.0256 51.425C86.5256 51.425 86.7256 51.025 86.7256 50.725C86.7256 50.225 86.4256 50.125 86.2256 50.025H86.1256H86.0256C85.5256 50.025 84.9256 50.225 84.2256 50.625C83.0256 51.225 82.0256 52.025 81.3256 53.125C81.3256 52.525 81.3256 51.725 81.3256 50.825C81.3256 49.825 79.9256 49.825 79.9256 50.825V65.425C79.9256 65.825 80.2256 66.125 80.6256 66.125Z" fill="black"/>
<path d="M101.226 52.225C99.6256 50.625 97.6256 49.825 95.3256 49.825C93.0256 49.825 91.0256 50.625 89.4256 52.225C87.8256 53.825 87.0256 55.825 87.0256 58.125C87.0256 60.425 87.8256 62.425 89.4256 64.025C91.1256 65.625 93.1256 66.425 95.4256 66.425C97.7256 66.425 99.7256 65.625 101.326 63.925C102.926 62.225 103.726 60.225 103.726 57.925C103.726 55.725 102.926 53.725 101.226 52.225ZM95.3256 51.125C97.2256 51.125 98.9256 51.825 100.226 53.225C101.626 54.625 102.326 56.225 102.326 58.125C102.326 60.125 101.626 61.825 100.126 63.125C98.8256 64.525 97.2256 65.125 95.2256 65.125C93.3256 65.125 91.6256 64.425 90.3256 63.025C88.9256 61.625 88.2256 60.025 88.2256 58.125C88.2256 56.125 88.9256 54.525 90.3256 53.125C91.6256 51.725 93.3256 51.125 95.3256 51.125Z" fill="black"/>
<path d="M116.726 54.025C116.526 52.825 115.926 51.825 114.826 50.925C113.826 50.125 112.626 49.625 111.326 49.625C110.326 49.625 109.426 49.825 108.626 50.325C108.026 50.725 107.426 51.125 107.026 51.725V50.725C107.026 49.725 105.626 49.725 105.626 50.725V65.325C105.626 65.825 106.026 66.025 106.326 66.025C106.826 66.025 107.026 65.625 107.026 65.325V57.025C107.026 56.125 107.026 55.325 107.126 54.925C107.326 53.725 107.726 52.825 108.426 52.125C109.226 51.425 110.226 51.025 111.226 51.025C112.026 51.025 112.826 51.225 113.426 51.625C114.326 52.125 114.926 52.925 115.126 53.925C115.326 54.525 115.326 55.625 115.326 57.025V65.325C115.326 65.725 115.626 66.025 116.026 66.025C116.226 66.025 116.426 65.925 116.526 65.825H116.826V56.325C116.926 55.425 116.826 54.625 116.726 54.025Z" fill="black"/>
<path d="M40.5256 85.325C39.8256 85.325 39.7256 85.725 39.7256 86.025C39.7256 86.525 40.1256 86.725 40.4256 86.725C41.2256 86.725 41.8256 86.925 42.5256 87.325C43.8256 88.025 44.5256 89.225 44.5256 90.725C44.5256 91.825 44.1256 92.725 43.3256 93.525C42.5256 94.325 41.6256 94.725 40.5256 94.725C38.9256 94.725 37.8256 94.025 36.9256 92.625C36.6256 92.225 36.4256 91.625 36.4256 90.925C36.4256 90.425 36.1256 90.125 35.7256 90.125C35.2256 90.125 35.0256 90.525 35.0256 90.825C35.0256 92.225 35.6256 93.525 36.7256 94.425C37.7256 95.425 39.0256 95.925 40.4256 95.925C41.9256 95.925 43.2256 95.425 44.2256 94.325C45.2256 93.325 45.8256 92.025 45.8256 90.525C45.8256 89.025 45.3256 87.825 44.3256 86.825C43.3256 85.925 42.0256 85.325 40.5256 85.325Z" fill="black"/>
<path d="M40.2256 81.125C41.5256 81.125 42.4256 81.625 43.0256 82.725C43.1256 82.925 43.3256 83.325 43.4256 83.725C43.4256 84.225 43.7256 84.525 44.1256 84.525C44.5256 84.525 44.8256 84.225 44.8256 83.825C44.8256 82.625 44.2256 81.625 43.2256 81.025C42.3256 80.225 41.3256 79.825 40.1256 79.825C38.9256 79.825 37.8256 80.225 36.9256 81.125C36.1256 82.125 35.6256 83.125 35.6256 84.325C35.6256 85.525 36.0256 86.625 36.9256 87.525C37.7256 88.425 38.8256 88.925 40.0256 88.925C40.5256 88.925 40.8256 88.625 40.8256 88.225C40.8256 87.825 40.5256 87.525 40.1256 87.525C39.2256 87.525 38.5256 87.225 37.9256 86.625C37.3256 86.025 37.0256 85.225 37.0256 84.325C37.0256 83.425 37.3256 82.625 37.9256 82.025C38.7256 81.425 39.4256 81.125 40.2256 81.125Z" fill="black"/>
<path d="M57.9256 86.525C57.9256 85.425 57.8256 84.625 57.7256 84.125C57.4256 82.825 56.8256 81.825 55.9256 81.125C54.9256 80.225 53.9256 79.825 52.6256 79.825C51.7256 79.825 50.8256 80.025 50.0256 80.525C49.3256 80.825 48.8256 81.325 48.4256 81.825V75.825C48.4256 74.825 47.0256 74.825 47.0256 75.825V94.925C47.0256 95.425 47.4256 95.625 47.7256 95.625C48.2256 95.625 48.4256 95.225 48.4256 94.925V86.925C48.4256 86.325 48.4256 85.825 48.5256 85.425C48.5256 85.125 48.5256 84.925 48.5256 84.825C48.7256 83.725 49.1256 82.825 49.8256 82.125C50.6256 81.425 51.4256 81.125 52.6256 81.125C53.4256 81.125 54.2256 81.325 54.8256 81.725C55.7256 82.325 56.2256 83.025 56.4256 83.925C56.6256 84.525 56.6256 85.525 56.6256 86.925V94.925C56.6256 95.325 56.9256 95.625 57.3256 95.625C57.8256 95.625 58.0256 95.225 58.0256 94.925L57.9256 94.425V86.525Z" fill="black"/>
<path d="M73.3256 82.125C71.7256 80.525 69.8256 79.725 67.6256 79.725C65.4256 79.725 63.4256 80.525 61.9256 82.125C60.3256 83.725 59.5256 85.625 59.5256 87.825C59.5256 90.025 60.3256 92.025 61.9256 93.525C63.5256 95.125 65.4256 95.925 67.7256 95.925C70.0256 95.925 71.9256 95.125 73.4256 93.525C75.0256 91.925 75.8256 90.025 75.8256 87.725C75.8256 85.425 75.0256 83.625 73.3256 82.125ZM62.8256 92.625C61.5256 91.325 60.8256 89.725 60.8256 87.825C60.8256 85.925 61.5256 84.325 62.8256 82.925C64.1256 81.625 65.7256 80.925 67.7256 80.925C69.5256 80.925 71.2256 81.625 72.5256 82.925C73.8256 84.225 74.5256 85.825 74.5256 87.725C74.5256 89.625 73.8256 91.325 72.4256 92.625C71.1256 93.925 69.5256 94.625 67.6256 94.625C65.8256 94.625 64.1256 93.925 62.8256 92.625Z" fill="black"/>
<path d="M85.2256 79.725C82.9256 79.725 81.0256 80.525 79.5256 82.125C78.0256 83.725 77.1256 85.625 77.1256 87.825C77.1256 90.025 77.9256 91.925 79.4256 93.525V100.025C79.4256 100.425 79.7256 100.725 80.1256 100.725C80.6256 100.725 80.8256 100.325 80.8256 100.025V94.725C82.1256 95.625 83.6256 96.025 85.2256 96.025C87.5256 96.025 89.5256 95.225 91.0256 93.725C92.6256 92.125 93.5256 90.325 93.5256 88.025C93.5256 85.725 92.6256 83.825 91.0256 82.225C89.4256 80.525 87.5256 79.725 85.2256 79.725ZM80.1256 87.125C79.8256 87.125 79.4256 87.425 79.4256 87.925V91.325C78.8256 90.325 78.5256 89.125 78.5256 87.825C78.5256 86.025 79.2256 84.325 80.5256 83.025C81.9256 81.625 83.5256 81.025 85.4256 81.025C87.3256 81.025 88.9256 81.725 90.3256 83.025C91.6256 84.325 92.3256 85.925 92.3256 87.925C92.3256 89.825 91.6256 91.425 90.2256 92.725C88.9256 94.025 87.3256 94.725 85.4256 94.725C83.7256 94.725 82.2256 94.125 80.9256 92.925V87.925C80.8256 87.225 80.4256 87.125 80.1256 87.125Z" fill="black"/>
<path d="M56.7256 102.325V109.525L63.2256 105.825L56.7256 102.325Z" fill="black"/>
<path d="M69.4258 102.325V109.525L62.9258 105.825L69.4258 102.325Z" fill="black"/>
</svg>
